<?xml version="1.0" encoding="UTF-8"?>
<svg width="55px" height="8px" viewBox="0 0 55 8" version="1.1" xmlns="http://www.w3.org/2000/svg" xmlns:xlink="http://www.w3.org/1999/xlink">
    <title>Shape</title>
    <g id="Desktop" stroke="none" stroke-width="1" fill="none" fill-rule="evenodd">
        <g id="Desktop-HD---Home" transform="translate(-120.000000, -334.000000)" fill="#FFFFFF" fill-rule="nonzero">
            <g id="Group-2" transform="translate(120.000000, 252.000000)">
                <path d="M8.17962533,90 C10.6592456,90 13.0011092,88.8747716 14.5853111,87.0462754 C16.1695129,88.8747716 18.5113765,90 21.0598751,90 C23.5394954,90 25.881359,88.8747716 27.4655608,87.0462754 C29.0497627,88.8747716 31.3916263,90 33.9401249,90 C36.4197452,90 38.7616088,88.8747716 40.3458106,87.0462754 C41.9300125,88.8747716 44.271876,90 46.8203747,90 C50.3331701,90 53.5015738,87.8198699 54.8791406,84.4441846 C55.2235323,83.5299365 54.8102622,82.5453616 53.9148438,82.123401 C53.0194254,81.7717671 51.9862502,82.1937277 51.6418585,83.1079758 C50.8153184,85.1474524 48.9556032,86.4836611 46.8203747,86.4836611 C44.6851461,86.4836611 42.8254309,85.2177792 41.9988908,83.1783026 C41.8611341,82.6860152 41.5167424,82.3343813 41.034594,82.123401 C40.1391756,81.7717671 39.1060005,82.1937277 38.7616088,83.1079758 C37.9350687,85.1474524 36.0753535,86.4836611 33.9401249,86.4836611 C31.8048963,86.4836611 29.9451811,85.2177792 29.118641,83.1783026 C28.9808843,82.6860152 28.6364926,82.3343813 28.1543442,82.123401 C27.2589258,81.7717671 26.2257507,82.1937277 25.881359,83.1079758 C25.0548189,85.1474524 23.1951037,86.4836611 21.0598751,86.4836611 C18.9935249,86.4836611 17.1338097,85.2177792 16.3072696,83.2486294 C16.1695129,82.756342 15.8251212,82.3343813 15.2740945,82.123401 C14.378676,81.7717671 13.3455009,82.1937277 13.0011092,83.1079758 C12.1745691,85.1474524 10.3148539,86.4836611 8.17962533,86.4836611 C6.04439676,86.4836611 4.18468155,85.1474524 3.35814146,83.1079758 C3.01374975,82.1937277 1.98057464,81.7717671 1.0851562,82.123401 C0.189737769,82.4750349 -0.223532277,83.5299365 0.120859428,84.4441846 C1.49842625,87.8198699 4.66682994,90 8.17962533,90 Z" id="Shape"></path>
            </g>
        </g>
    </g>
</svg>